<?xml version="1.0" encoding="utf-8"?><!-- Uploaded to: SVG Repo, www.svgrepo.com, Generator: SVG Repo Mixer Tools -->
<!DOCTYPE svg PUBLIC "-//W3C//DTD SVG 1.1//EN" "http://www.w3.org/Graphics/SVG/1.1/DTD/svg11.dtd">
<svg fill="none" version="1.1" id="icon" xmlns="http://www.w3.org/2000/svg" xmlns:xlink="http://www.w3.org/1999/xlink" 
    width="32" height="28" viewBox="-2 -2 28 28"
    xml:space="preserve">
    <defs>
       <style>.cls-1{fill:none;}</style>
    </defs>
    <title>request-quote</title>
    <g transform="translate(-2, -4)">
        <path fill="#5c85fc" d="M22,22v6H6V4H16V2H6A2,2,0,0,0,4,4V28a2,2,0,0,0,2,2H22a2,2,0,0,0,2-2V22Z"/>
        <path fill="#5c85fc" d="M29.54,5.76l-3.3-3.3a1.6,1.6,0,0,0-2.24,0l-14,14V22h5.53l14-14a1.6,1.6,0,0,0,0-2.24ZM14.7,20H12V17.3l9.44-9.45,2.71,2.71ZM25.56,9.15,22.85,6.44l2.27-2.27,2.71,2.71Z"/>
    </g>
    <rect id="_Transparent_Rectangle_" data-name="&lt;Transparent Rectangle&gt;" class="cls-1" width="72.454" height="39.641"/>
</svg>